<svg width="194" height="42" viewBox="0 0 194 42" fill="none" xmlns="http://www.w3.org/2000/svg">
<path d="M24.0235 18.9514C26.0547 18.9514 27.7013 17.4294 27.7013 15.5519C27.7013 13.6745 26.0547 12.1525 24.0235 12.1525C21.9923 12.1525 20.3457 13.6745 20.3457 15.5519C20.3457 17.4294 21.9923 18.9514 24.0235 18.9514Z" fill="#3949AB"/>
<path d="M45.2041 3.84273C43.173 3.84273 41.5263 6.84463 41.5263 10.5475C41.5263 10.8683 41.5427 11.1816 41.5667 11.491C30.2013 8.91836 18.8348 8.76997 7.3365 10.6093C7.34908 10.3815 7.35564 10.151 7.35564 9.91717C7.35564 6.17985 5.70896 3.15002 3.67782 3.15002C1.64668 3.15002 0 6.17985 0 9.91717C0 13.6545 1.64668 16.6843 3.67782 16.6843C5.36169 16.6843 6.77813 14.5996 7.21454 11.7582C18.8168 9.86132 30.2533 10.0174 41.7188 12.6727C42.2066 15.3323 43.5815 17.2511 45.2052 17.2511C47.2363 17.2511 48.883 14.2497 48.883 10.5469C48.8819 6.84463 47.2352 3.84273 45.2041 3.84273Z" fill="#3949AB"/>
<path d="M20.122 29.0523C17.83 30.2044 15.5435 31.3724 13.5101 32.9539C11.0579 34.8617 9.09019 37.259 7.80938 40.1027C7.5414 40.6968 7.64093 41.3879 8.24689 41.7383C8.76916 42.0401 9.61192 41.8961 9.88044 41.2997C11.0305 38.7474 12.745 36.5324 14.9643 34.8316C16.9233 33.3306 19.1376 32.2212 21.3328 31.1178C21.9158 30.8248 22.0722 30.0133 21.7588 29.4783C21.4138 28.8885 20.7044 28.7593 20.122 29.0523Z" fill="#3949AB"/>
<path d="M41.027 32.4101C39.6188 28.9624 37.3137 25.7486 33.521 24.8024C30.6723 24.0916 27.7251 24.8035 25.0568 25.9846C24.9868 25.0356 24.9999 24.079 25.0218 23.1251C25.0568 22.6043 25.07 22.0825 25.0519 21.5584C29.9848 20.9856 33.556 16.4839 34.67 11.866C35.0326 10.3645 32.7247 9.73207 32.3627 11.2336C31.4478 15.0262 28.5689 18.9809 24.4027 19.2295C22.2349 19.3587 20.5352 18.4185 19.1575 16.7977C18.4559 15.9719 17.9456 15.0174 17.5032 14.034C17.2538 13.4798 17.0515 12.9054 16.8737 12.3249C16.7786 12.0139 16.7026 11.6979 16.6342 11.3803C16.5773 11.1153 16.5702 10.8158 16.4083 10.5836C15.9927 9.98834 15.0696 9.72495 14.5265 10.3476C14.1869 10.7369 14.1317 11.446 14.2175 12.0714C14.2257 12.1311 15.209 14.7321 15.5164 15.4155C16.0671 16.6399 16.8048 17.739 17.6892 18.7482C18.8857 20.1133 20.4017 21.013 22.0949 21.4035C22.0413 21.5749 21.9937 21.7736 21.9937 22.0217C21.9937 24.0418 21.9937 26.0624 21.9937 28.0824C21.9937 28.1027 22.015 28.1208 22.0156 28.1405C21.9932 28.9613 22.8742 29.8167 23.8165 29.285C25.3691 28.4083 26.983 27.6734 28.7161 27.2381C30.0466 26.904 31.5074 26.8109 32.7679 27.0847C34.0936 27.3728 35.1403 27.9888 36.1094 28.9296C37.2568 30.0434 38.0935 31.506 38.7153 33.0294C38.962 33.6334 39.4908 34.0611 40.1805 33.876C40.7503 33.7237 41.2742 33.0157 41.027 32.4101Z" fill="#3949AB"/>
<path d="M15.1182 10.5469C15.1182 10.5469 15.2418 10.9871 15.5141 11.7384C15.7837 12.4903 16.2125 13.5499 16.8294 14.771C17.1384 15.381 17.4971 16.0305 17.9297 16.6837C18.3557 17.3398 18.8496 18.0067 19.444 18.6178C20.0341 19.2295 20.721 19.7995 21.5217 20.1916C22.3179 20.5875 23.2351 20.7704 24.1331 20.6691C25.0376 20.5848 25.8815 20.196 26.6427 19.742L27.2016 19.3779C27.381 19.2481 27.5467 19.1019 27.719 18.9661C28.0701 18.7016 28.3764 18.3939 28.681 18.0949C28.9965 17.8069 29.2661 17.4843 29.5385 17.176C29.6741 17.0216 29.8087 16.8694 29.9416 16.7188C30.0641 16.5594 30.1855 16.4023 30.3052 16.2473C30.5409 15.9346 30.7849 15.6406 30.9943 15.3372C31.2027 15.0328 31.4039 14.7387 31.597 14.4567C31.9951 13.8998 32.2975 13.3484 32.6005 12.8818C32.9024 12.4142 33.1321 11.9865 33.3295 11.6399C33.7227 10.9444 33.947 10.5469 33.947 10.5469C33.947 10.5469 33.7282 10.9477 33.3459 11.6497C33.1534 11.9996 32.9298 12.4311 32.6355 12.9037C32.3402 13.3752 32.046 13.9326 31.6478 14.4912C31.4559 14.7748 31.2557 15.0705 31.0485 15.3766C30.8401 15.6817 30.5973 15.9774 30.3621 16.2928C30.2429 16.4488 30.122 16.6071 30.0001 16.7675C29.8677 16.9198 29.7332 17.0736 29.5981 17.2291C29.3263 17.5402 29.0572 17.8649 28.7411 18.1568C28.4365 18.459 28.1297 18.7701 27.7775 19.0389C27.6047 19.1769 27.4385 19.3253 27.258 19.4573L26.6947 19.8286C25.9269 20.2918 25.071 20.6927 24.1445 20.7836C23.2241 20.8832 22.2851 20.6894 21.4768 20.2825C20.6636 19.8789 19.9729 19.298 19.3806 18.6786C18.7845 18.0587 18.2918 17.3858 17.8674 16.7248C17.437 16.0666 17.0804 15.4133 16.7736 14.8C16.1589 13.5734 15.7569 12.5007 15.495 11.7461C15.2352 10.9888 15.1182 10.5469 15.1182 10.5469Z" fill="#3949AB"/>
<path d="M66.6421 37.5459C65.1191 37.5459 63.6595 37.1647 62.4538 36.4022C61.8509 36.0845 61.3115 35.5761 61.0576 35.3537L60.55 34.8454L63.4057 32.3355L63.8181 32.685C64.6749 33.3204 65.7537 33.7652 66.6421 33.8287C68.7998 33.797 70.5766 31.9543 70.5766 29.7303V27.8876L70.418 28.0464C69.3074 29.1266 68.2604 29.2855 67.0863 29.349H66.5469C64.5797 29.2855 62.8345 28.5548 61.4701 27.1886C60.0423 25.7272 59.249 23.8209 59.249 21.8193C59.249 19.8178 60.0423 17.9115 61.4701 16.4501C62.9297 15.0204 64.8335 14.2579 66.8325 14.2579C68.3873 14.2579 69.4661 14.6709 70.418 15.624L70.5766 15.7511V14.5438H74.416V29.7621C74.416 31.8589 73.591 33.797 72.0997 35.2584C70.6718 36.7517 68.7363 37.5459 66.6421 37.5459ZM66.8325 17.9433C64.8018 17.9433 63.0884 19.7225 63.0884 21.8193C63.0884 23.9162 64.8018 25.6636 66.8325 25.6636C68.8632 25.6636 70.5766 23.9162 70.5766 21.8193C70.5766 19.7225 68.8632 17.9433 66.8325 17.9433ZM83.3321 37.5459H79.1755L82.6341 29.1266L76.8275 14.5438H81.0793L84.6965 23.5985L88.3772 14.5438H92.5973L83.3321 37.5459ZM119.124 29.0949H115.157V21.311C115.157 19.6271 113.729 18.1339 112.08 18.1339C110.366 18.1339 108.97 19.5954 108.97 21.311V29.0949H105.004V21.311C105.004 19.5954 103.608 18.1339 101.926 18.1339C100.244 18.1339 98.8481 19.6271 98.8481 21.311V29.0949H94.8818V14.5438H98.8481V15.5922C99.8317 14.6073 100.879 14.2579 101.926 14.2579C102.846 14.2579 103.766 14.4485 104.655 14.8297C105.48 15.211 106.241 15.7511 106.939 16.4183C106.939 16.4501 106.971 16.4501 107.003 16.4818L107.066 16.4183C107.733 15.7511 108.494 15.211 109.351 14.8297C110.239 14.4485 111.159 14.2579 112.08 14.2579C113.952 14.2579 115.728 14.9886 117.061 16.2912C118.394 17.6573 119.124 19.4365 119.124 21.311V29.0949ZM127.881 29.222C127.437 29.222 126.961 29.1584 126.39 29.0631C124.803 28.7454 123.312 28.0464 122.138 26.998L121.662 26.6167L124.042 23.9798L124.486 24.3928C125.882 25.5683 127.024 25.7907 127.754 25.7907C128.294 25.7907 128.674 25.7272 129.055 25.5365C129.531 25.3459 129.753 25.0282 129.753 24.5834C129.753 24.2022 129.531 23.7256 127.659 23.4079C125.946 23.0584 124.867 22.7089 124.359 22.423C123.693 22.0417 123.153 21.5334 122.773 20.898C122.392 20.2626 122.201 19.5636 122.201 18.7693C122.201 17.9433 122.455 17.149 122.963 16.4183C123.375 15.8146 123.978 15.3381 124.867 14.8933C125.597 14.5438 126.421 14.3849 127.405 14.3849C127.754 14.3849 128.103 14.4167 128.42 14.4485C129.817 14.6709 131.213 15.2745 132.355 16.1641L132.831 16.5454L130.578 19.1506L130.134 18.8011C129.023 17.9115 128.071 17.7527 127.5 17.7527C127.088 17.7527 126.707 17.8162 126.358 17.9751C125.946 18.1975 125.723 18.5469 125.723 18.7693C125.723 19.2141 126.041 19.5318 127.691 19.9131C129.848 20.4214 130.546 20.6756 130.991 20.8662C131.879 21.3745 132.26 21.7876 132.577 22.2006C133.053 22.8678 133.275 23.6938 133.275 24.5834C133.275 25.5048 133.021 26.3308 132.545 26.998C132.069 27.6652 131.435 28.2371 130.515 28.6819C129.785 29.0313 128.833 29.222 127.881 29.222ZM149.997 29.0949H145.999V21.311C145.999 19.5954 144.635 18.261 142.921 18.261C141.271 18.261 139.843 19.6271 139.843 21.311V29.0949H135.877V5.77502H139.843V15.5922C140.827 14.6073 141.874 14.2579 142.921 14.2579C144.825 14.2579 146.602 14.9886 147.934 16.2912C149.267 17.6573 149.997 19.4365 149.997 21.311V29.0949ZM160.087 29.3808C158.088 29.3808 156.184 28.6183 154.725 27.1886C153.297 25.7272 152.504 23.8209 152.504 21.8193C152.504 19.8178 153.297 17.9115 154.725 16.4501C156.153 15.0204 158.056 14.2579 160.087 14.2579C161.42 14.2579 162.625 14.7344 163.673 15.6876L163.831 15.8146V14.5438H167.671V29.0949H163.831V27.9511L163.673 28.11C162.53 29.222 161.229 29.3808 160.087 29.3808ZM160.087 17.9751C158.056 17.9751 156.343 19.7542 156.343 21.8193C156.343 23.9162 158.056 25.6636 160.087 25.6636C162.118 25.6636 163.831 23.9162 163.831 21.8193C163.831 19.7542 162.118 17.9751 160.087 17.9751ZM175.857 29.0949H171.732V5.77502H175.857V29.0949ZM186.296 29.3808C184.297 29.3808 182.393 28.6183 180.934 27.1886C179.506 25.7272 178.713 23.8209 178.713 21.8193C178.713 19.8178 179.506 17.9115 180.934 16.4501C182.362 15.0204 184.265 14.2579 186.296 14.2579C187.629 14.2579 188.834 14.7344 189.882 15.6876L190.04 15.8146V14.5438H193.88V29.0949H190.04V27.9511L189.882 28.11C188.739 29.222 187.438 29.3808 186.296 29.3808ZM186.296 17.9751C184.265 17.9751 182.552 19.7542 182.552 21.8193C182.552 23.9162 184.265 25.6636 186.296 25.6636C188.327 25.6636 190.04 23.9162 190.04 21.8193C190.04 19.7542 188.327 17.9751 186.296 17.9751Z" fill="#3949AB"/>
</svg>
