<svg width="194" height="43" viewBox="0 0 194 43" fill="none" xmlns="http://www.w3.org/2000/svg">
<g clip-path="url(#clip0_1_432)">
<path d="M24.0235 19.4513C26.0547 19.4513 27.7013 17.9293 27.7013 16.0518C27.7013 14.1743 26.0547 12.6523 24.0235 12.6523C21.9923 12.6523 20.3457 14.1743 20.3457 16.0518C20.3457 17.9293 21.9923 19.4513 24.0235 19.4513Z" fill="white"/>
<path d="M45.2041 4.34261C43.173 4.34261 41.5263 7.34451 41.5263 11.0473C41.5263 11.3682 41.5427 11.6814 41.5667 11.9908C30.2013 9.41824 18.8348 9.26984 7.3365 11.1092C7.34908 10.8814 7.35564 10.6509 7.35564 10.417C7.35564 6.67973 5.70896 3.6499 3.67782 3.6499C1.64668 3.6499 0 6.67973 0 10.417C0 14.1544 1.64668 17.1842 3.67782 17.1842C5.36169 17.1842 6.77813 15.0995 7.21454 12.2581C18.8168 10.3612 30.2533 10.5173 41.7188 13.1725C42.2066 15.8322 43.5815 17.751 45.2052 17.751C47.2363 17.751 48.883 14.7496 48.883 11.0468C48.8819 7.34451 47.2352 4.34261 45.2041 4.34261Z" fill="white"/>
<path d="M20.122 29.552C17.83 30.7042 15.5435 31.8722 13.5101 33.4536C11.0579 35.3614 9.09019 37.7588 7.80938 40.6024C7.5414 41.1966 7.64093 41.8876 8.24689 42.2381C8.76916 42.5398 9.61192 42.3958 9.88044 41.7995C11.0305 39.2471 12.745 37.0321 14.9643 35.3313C16.9233 33.8304 19.1376 32.7209 21.3328 31.6175C21.9158 31.3246 22.0722 30.513 21.7588 29.9781C21.4138 29.3883 20.7044 29.2591 20.122 29.552Z" fill="white"/>
<path d="M41.027 32.9101C39.6188 29.4624 37.3137 26.2486 33.521 25.3024C30.6723 24.5916 27.7251 25.3035 25.0568 26.4846C24.9868 25.5356 24.9999 24.579 25.0218 23.6251C25.0568 23.1043 25.07 22.5825 25.0519 22.0584C29.9848 21.4856 33.556 16.9839 34.67 12.366C35.0326 10.8645 32.7247 10.2321 32.3627 11.7336C31.4478 15.5262 28.5689 19.4809 24.4027 19.7295C22.2349 19.8587 20.5352 18.9185 19.1575 17.2977C18.4559 16.4719 17.9456 15.5174 17.5032 14.534C17.2538 13.9798 17.0515 13.4054 16.8737 12.8249C16.7786 12.5139 16.7026 12.1979 16.6342 11.8803C16.5773 11.6153 16.5702 11.3158 16.4083 11.0836C15.9927 10.4883 15.0696 10.2249 14.5265 10.8476C14.1869 11.2369 14.1317 11.946 14.2175 12.5714C14.2257 12.6311 15.209 15.2321 15.5164 15.9155C16.0671 17.1399 16.8048 18.239 17.6892 19.2482C18.8857 20.6133 20.4017 21.513 22.0949 21.9035C22.0413 22.0749 21.9937 22.2736 21.9937 22.5217C21.9937 24.5418 21.9937 26.5624 21.9937 28.5824C21.9937 28.6027 22.015 28.6208 22.0156 28.6405C21.9932 29.4613 22.8742 30.3167 23.8165 29.785C25.3691 28.9083 26.983 28.1734 28.7161 27.7381C30.0466 27.404 31.5074 27.3109 32.7679 27.5847C34.0936 27.8728 35.1403 28.4888 36.1094 29.4296C37.2568 30.5434 38.0935 32.006 38.7153 33.5294C38.962 34.1334 39.4908 34.5611 40.1805 34.376C40.7503 34.2237 41.2742 33.5157 41.027 32.9101Z" fill="white"/>
<path d="M15.1182 11.0469C15.1182 11.0469 15.2418 11.4871 15.5141 12.2384C15.7837 12.9903 16.2125 14.0499 16.8294 15.271C17.1384 15.881 17.4971 16.5305 17.9297 17.1837C18.3557 17.8398 18.8496 18.5067 19.444 19.1178C20.0341 19.7295 20.721 20.2995 21.5217 20.6916C22.3179 21.0875 23.2351 21.2704 24.1331 21.1691C25.0376 21.0848 25.8815 20.696 26.6427 20.242L27.2016 19.8779C27.381 19.7481 27.5467 19.6019 27.719 19.4661C28.0701 19.2016 28.3764 18.8939 28.681 18.5949C28.9965 18.3069 29.2661 17.9843 29.5385 17.676C29.6741 17.5216 29.8087 17.3694 29.9416 17.2188C30.0641 17.0594 30.1855 16.9023 30.3052 16.7473C30.5409 16.4346 30.7849 16.1406 30.9943 15.8372C31.2027 15.5328 31.4039 15.2387 31.597 14.9567C31.9951 14.3998 32.2975 13.8484 32.6005 13.3818C32.9024 12.9142 33.1321 12.4865 33.3295 12.1399C33.7227 11.4444 33.947 11.0469 33.947 11.0469C33.947 11.0469 33.7282 11.4477 33.3459 12.1497C33.1534 12.4996 32.9298 12.9311 32.6355 13.4037C32.3402 13.8752 32.046 14.4326 31.6478 14.9912C31.4559 15.2748 31.2557 15.5705 31.0485 15.8766C30.8401 16.1817 30.5973 16.4774 30.3621 16.7928C30.2429 16.9488 30.122 17.1071 30.0001 17.2675C29.8677 17.4198 29.7332 17.5736 29.5981 17.7291C29.3263 18.0402 29.0572 18.3649 28.7411 18.6568C28.4365 18.959 28.1297 19.2701 27.7775 19.5389C27.6047 19.6769 27.4385 19.8253 27.258 19.9573L26.6947 20.3286C25.9269 20.7918 25.071 21.1927 24.1445 21.2836C23.2241 21.3832 22.2851 21.1894 21.4768 20.7825C20.6636 20.3789 19.9729 19.798 19.3806 19.1786C18.7845 18.5587 18.2918 17.8858 17.8674 17.2248C17.437 16.5666 17.0804 15.9133 16.7736 15.3C16.1589 14.0734 15.7569 13.0007 15.495 12.2461C15.2352 11.4888 15.1182 11.0469 15.1182 11.0469Z" fill="white"/>
<path d="M66.6421 38.0458C65.1191 38.0458 63.6595 37.6646 62.4538 36.9021C61.8509 36.5844 61.3115 36.076 61.0576 35.8536L60.55 35.3453L63.4057 32.8354L63.8181 33.1849C64.6749 33.8203 65.7537 34.2651 66.6421 34.3286C68.7998 34.2969 70.5766 32.4541 70.5766 30.2302V28.3875L70.418 28.5463C69.3074 29.6265 68.2604 29.7854 67.0863 29.8489H66.5469C64.5797 29.7854 62.8345 29.0546 61.4701 27.6885C60.0423 26.227 59.249 24.3208 59.249 22.3192C59.249 20.3176 60.0423 18.4114 61.4701 16.9499C62.9297 15.5202 64.8335 14.7577 66.8325 14.7577C68.3873 14.7577 69.4661 15.1708 70.418 16.1239L70.5766 16.251V15.0437H74.416V30.2619C74.416 32.3588 73.591 34.2969 72.0997 35.7583C70.6718 37.2515 68.7363 38.0458 66.6421 38.0458ZM66.8325 18.4432C64.8018 18.4432 63.0884 20.2223 63.0884 22.3192C63.0884 24.4161 64.8018 26.1635 66.8325 26.1635C68.8632 26.1635 70.5766 24.4161 70.5766 22.3192C70.5766 20.2223 68.8632 18.4432 66.8325 18.4432ZM83.3321 38.0458H79.1755L82.6341 29.6265L76.8275 15.0437H81.0793L84.6965 24.0984L88.3772 15.0437H92.5973L83.3321 38.0458ZM119.124 29.5948H115.157V21.8109C115.157 20.127 113.729 18.6338 112.08 18.6338C110.366 18.6338 108.97 20.0953 108.97 21.8109V29.5948H105.004V21.8109C105.004 20.0953 103.608 18.6338 101.926 18.6338C100.244 18.6338 98.8481 20.127 98.8481 21.8109V29.5948H94.8818V15.0437H98.8481V16.0921C99.8317 15.1072 100.879 14.7577 101.926 14.7577C102.846 14.7577 103.766 14.9484 104.655 15.3296C105.48 15.7109 106.241 16.251 106.939 16.9182C106.939 16.9499 106.971 16.9499 107.003 16.9817L107.066 16.9182C107.733 16.251 108.494 15.7109 109.351 15.3296C110.239 14.9484 111.159 14.7577 112.08 14.7577C113.952 14.7577 115.728 15.4885 117.061 16.7911C118.394 18.1572 119.124 19.9364 119.124 21.8109V29.5948ZM127.881 29.7218C127.437 29.7218 126.961 29.6583 126.39 29.563C124.803 29.2453 123.312 28.5463 122.138 27.4979L121.662 27.1166L124.042 24.4796L124.486 24.8927C125.882 26.0682 127.024 26.2906 127.754 26.2906C128.294 26.2906 128.674 26.227 129.055 26.0364C129.531 25.8458 129.753 25.5281 129.753 25.0833C129.753 24.702 129.531 24.2255 127.659 23.9078C125.946 23.5583 124.867 23.2088 124.359 22.9229C123.693 22.5416 123.153 22.0333 122.773 21.3979C122.392 20.7624 122.201 20.0635 122.201 19.2692C122.201 18.4432 122.455 17.6489 122.963 16.9182C123.375 16.3145 123.978 15.8379 124.867 15.3932C125.597 15.0437 126.421 14.8848 127.405 14.8848C127.754 14.8848 128.103 14.9166 128.42 14.9484C129.817 15.1708 131.213 15.7744 132.355 16.664L132.831 17.0452L130.578 19.6505L130.134 19.301C129.023 18.4114 128.071 18.2525 127.5 18.2525C127.088 18.2525 126.707 18.3161 126.358 18.4749C125.946 18.6973 125.723 19.0468 125.723 19.2692C125.723 19.714 126.041 20.0317 127.691 20.413C129.848 20.9213 130.546 21.1755 130.991 21.3661C131.879 21.8744 132.26 22.2874 132.577 22.7005C133.053 23.3677 133.275 24.1937 133.275 25.0833C133.275 26.0046 133.021 26.8307 132.545 27.4979C132.069 28.1651 131.435 28.7369 130.515 29.1817C129.785 29.5312 128.833 29.7218 127.881 29.7218ZM149.997 29.5948H145.999V21.8109C145.999 20.0953 144.635 18.7609 142.921 18.7609C141.271 18.7609 139.843 20.127 139.843 21.8109V29.5948H135.877V6.2749H139.843V16.0921C140.827 15.1072 141.874 14.7577 142.921 14.7577C144.825 14.7577 146.602 15.4885 147.934 16.7911C149.267 18.1572 149.997 19.9364 149.997 21.8109V29.5948ZM160.087 29.8807C158.088 29.8807 156.184 29.1182 154.725 27.6885C153.297 26.227 152.504 24.3208 152.504 22.3192C152.504 20.3176 153.297 18.4114 154.725 16.9499C156.153 15.5202 158.056 14.7577 160.087 14.7577C161.42 14.7577 162.625 15.2343 163.673 16.1874L163.831 16.3145V15.0437H167.671V29.5948H163.831V28.451L163.673 28.6099C162.53 29.7218 161.229 29.8807 160.087 29.8807ZM160.087 18.4749C158.056 18.4749 156.343 20.2541 156.343 22.3192C156.343 24.4161 158.056 26.1635 160.087 26.1635C162.118 26.1635 163.831 24.4161 163.831 22.3192C163.831 20.2541 162.118 18.4749 160.087 18.4749ZM175.857 29.5948H171.732V6.2749H175.857V29.5948ZM186.296 29.8807C184.297 29.8807 182.393 29.1182 180.934 27.6885C179.506 26.227 178.713 24.3208 178.713 22.3192C178.713 20.3176 179.506 18.4114 180.934 16.9499C182.362 15.5202 184.265 14.7577 186.296 14.7577C187.629 14.7577 188.834 15.2343 189.882 16.1874L190.04 16.3145V15.0437H193.88V29.5948H190.04V28.451L189.882 28.6099C188.739 29.7218 187.438 29.8807 186.296 29.8807ZM186.296 18.4749C184.265 18.4749 182.552 20.2541 182.552 22.3192C182.552 24.4161 184.265 26.1635 186.296 26.1635C188.327 26.1635 190.04 24.4161 190.04 22.3192C190.04 20.2541 188.327 18.4749 186.296 18.4749Z" fill="white"/>
</g>
<defs>
<clipPath id="clip0_1_432">
<rect width="194" height="42" fill="white" transform="translate(0 0.5)"/>
</clipPath>
</defs>
</svg>
