<svg width="39" height="30" viewBox="0 0 39 30" fill="none" xmlns="http://www.w3.org/2000/svg">
<path d="M0 30V22.1053C0 19.7076 0.422646 17.1637 1.26794 14.4737C2.14238 11.7544 3.39574 9.13743 5.02803 6.62281C6.68946 4.07895 8.6861 1.87134 11.0179 0L16.6143 4.5614C14.778 7.19298 13.1749 9.94152 11.8049 12.807C10.4641 15.6433 9.79372 18.6842 9.79372 21.9298V30H0ZM22.3856 30V22.1053C22.3856 19.7076 22.8083 17.1637 23.6536 14.4737C24.528 11.7544 25.7814 9.13743 27.4137 6.62281C29.0751 4.07895 31.0717 1.87134 33.4036 0L39 4.5614C37.1637 7.19298 35.5605 9.94152 34.1906 12.807C32.8498 15.6433 32.1794 18.6842 32.1794 21.9298V30H22.3856Z" fill="#3949AB"/>
</svg>
